<svg width="38" height="38" viewBox="0 0 38 38" fill="none" xmlns="http://www.w3.org/2000/svg">
<path d="M9.05607 1.92765L11.8305 0.949435C13.3597 0.410215 14.6081 -0.0156772 14.6121 0.000442936C14.6161 0.0164971 14.2524 1.22983 13.8039 2.69671L12.9885 5.36375L5.45332 12.9484L2.73247 13.861C1.23601 14.3629 0.00644438 14.7683 9.76116e-05 14.7619C-0.00624916 14.7555 0.297716 13.6475 0.675558 12.2996L1.36258 9.84885L2.06711 9.12039C2.45461 8.71975 4.18563 6.93747 5.91386 5.1598L9.05607 1.92765Z" fill="#EA232A"/>
<path d="M14.9838 5.64699C14.978 5.62162 16.3576 1.06648 16.4278 0.878927C16.4299 0.873436 16.4311 0.867887 16.4345 0.865355C16.4634 0.843908 16.6512 1.03959 18.865 3.33107C20.0916 4.60061 20.9523 5.51252 20.9498 5.53972C20.9404 5.63829 19.7663 10.7391 19.7529 10.7393C19.7285 10.7396 14.9917 5.68193 14.9838 5.64699Z" fill="#EA232A"/>
<path d="M7.43478 13.7881L10.6333 10.5691C12.3924 8.79868 13.8333 7.35014 13.8351 7.35014C13.8505 7.35014 18.6629 12.4971 18.6629 12.5136C18.6629 12.5392 12.463 18.5184 12.4364 18.5184C12.4216 18.5184 8.49316 14.8062 7.6657 14.0102L7.43478 13.7881Z" fill="#EA232A"/>
<path d="M19.7013 17.1063C20.0049 16.3389 20.593 14.7705 20.7891 14.2053C20.846 14.041 20.901 13.9066 20.9112 13.9066C20.9214 13.9066 21.4446 14.408 22.0738 15.0207C22.703 15.6334 23.234 16.1502 23.2537 16.1691C23.283 16.1971 23.243 16.3365 23.0374 16.9233C21.6779 20.8033 20.243 24.0637 19.1855 25.6759C18.9469 26.0396 18.6556 26.4155 18.6219 26.4032C18.5802 26.3879 16.1369 24.0403 16.1369 24.0154C16.1369 24.0023 16.1782 23.9446 16.2287 23.8873C17.1384 22.8534 18.4089 20.3725 19.7013 17.1063Z" fill="#EA232A"/>
<path d="M0.45686 16.7368C0.45686 16.726 1.64634 16.3178 3.10012 15.8296C4.55393 15.3415 5.7558 14.9493 5.77098 14.9581C5.78616 14.9669 6.87935 15.9984 8.20029 17.2503L10.6557 19.5773C10.6852 19.6052 10.703 19.6345 10.6953 19.6422C10.6745 19.6632 5.38751 21.2977 5.36672 21.2896C5.33119 21.2757 0.45686 16.7559 0.45686 16.7368Z" fill="#EA232A"/>
<path d="M12.9836 20.7642C13.0554 20.6929 14.2188 19.571 15.569 18.271C16.9192 16.971 18.0284 15.912 18.034 15.9176C18.0561 15.9398 17.3974 17.5495 16.9632 18.5341C16.1551 20.3668 15.3033 21.9245 14.7766 22.5326L14.6806 22.6435L14.201 22.1823C13.9372 21.9287 13.5261 21.535 13.2873 21.3074L12.8532 20.8937L12.9836 20.7642Z" fill="#EA232A"/>
<path d="M20.2335 27.5934C21.3967 26.2575 23.0908 22.6662 24.7395 18.0414C24.8015 17.8675 24.8569 17.752 24.8735 17.7621C24.8891 17.7716 25.4569 18.3216 26.1353 18.9844L27.3688 20.1894L27.2477 20.5451C26.17 23.7114 24.7206 27.1551 23.7275 28.9087C23.4847 29.3375 23.0005 30.0742 22.8512 30.2422L22.74 30.3673L22.5096 30.1439C22.3829 30.0211 21.7854 29.4477 21.1819 28.8697C20.5784 28.2918 20.0846 27.8066 20.0846 27.7916C20.0846 27.7766 20.1516 27.6874 20.2335 27.5934Z" fill="#EA232A"/>
<path d="M24.4206 31.4507C25.604 29.9668 27.1498 26.6771 28.7389 22.261C28.8422 21.974 28.9368 21.7427 28.9493 21.747C28.9617 21.7514 29.4264 22.1988 29.9818 22.7412C30.5372 23.2836 31.1223 23.8525 31.282 24.0052L31.5722 24.2831L31.4074 24.7554C29.9984 28.7943 28.5401 32.1287 27.4769 33.7427C27.2475 34.0911 27.0109 34.4095 26.9817 34.4095C26.9564 34.4095 24.1976 31.7684 24.1984 31.7449C24.1987 31.7359 24.2987 31.6036 24.4206 31.4507Z" fill="#EA232A"/>
<path d="M32.2175 28.2836C32.4497 27.6824 32.9165 26.4224 33.0746 25.9704C33.1027 25.8899 33.1338 25.8274 33.1436 25.8315C33.1628 25.8394 35.4886 28.1075 35.4886 28.1183C35.4886 28.1438 35.0728 29.3445 34.8378 29.9976C33.542 33.5981 32.259 36.3713 31.2835 37.6802C31.1292 37.8872 31.0997 37.9128 30.9721 37.9507C30.8945 37.9737 30.8059 37.9959 30.7752 37.9999C30.7347 38.0052 30.4441 37.7434 29.7195 37.0488C29.1696 36.5216 28.6501 36.0268 28.565 35.9492L28.4103 35.8081L28.5765 35.6019C29.6123 34.3168 30.842 31.8452 32.2175 28.2836Z" fill="#EA232A"/>
<path d="M36.8502 30.2422C36.9339 30.0054 37.016 29.7763 37.0325 29.733L37.0624 29.6544L38 30.5567L37.9844 30.6703C37.8162 31.8983 37.2746 33.1051 36.3561 34.2984C36.0597 34.6834 35.1414 35.6192 34.7518 35.9331C34.5971 36.0578 34.4648 36.1597 34.4578 36.1597C34.4508 36.1597 34.5787 35.8691 34.742 35.5138C35.4303 34.0162 36.1662 32.1758 36.8502 30.2422Z" fill="#EA232A"/>
</svg>
